HIERARCHY
ROOT Hips
{
	OFFSET 0.000000 0.000000 0.000000
	CHANNELS 6 Xposition Yposition Zposition Xrotation Yrotation Zrotation
	JOINT LeftUpLeg_virtual
	{
		OFFSET 0.000000 0.000000 0.000000
		CHANNELS 3 Xrotation Yrotation Zrotation
		JOINT LeftUpLeg
		{
			OFFSET 13.026900 -6.336304 -1.092800
			CHANNELS 3 Xrotation Yrotation Zrotation
			JOINT LeftLeg
			{
				OFFSET 0.524474 -46.096886 9.782700
				CHANNELS 3 Xrotation Yrotation Zrotation
				JOINT LeftFoot
				{
					OFFSET -0.524474 -53.427422 -12.948200
					CHANNELS 3 Xrotation Yrotation Zrotation
					JOINT LeftToeBase
					{
						OFFSET 0.192200 -14.009700 16.364100
						CHANNELS 3 Xrotation Yrotation Zrotation
						JOINT LeftToe_End
						{
							OFFSET -1.784700 -0.561700 9.474800
							CHANNELS 3 Xrotation Yrotation Zrotation
							End Site
							{
								OFFSET 0 0 0
							}
						}
					}
				}
			}
		}
	}
	JOINT RightUpLeg_virtual
	{
		OFFSET 0.000000 0.000000 0.000000
		CHANNELS 3 Xrotation Yrotation Zrotation
		JOINT RightUpLeg
		{
			OFFSET -12.883000 -6.336304 -1.092800
			CHANNELS 3 Xrotation Yrotation Zrotation
			JOINT RightLeg
			{
				OFFSET -0.524587 -46.096825 9.782800
				CHANNELS 3 Xrotation Yrotation Zrotation
				JOINT RightFoot
				{
					OFFSET 0.524587 -53.427383 -12.948300
					CHANNELS 3 Xrotation Yrotation Zrotation
					JOINT RightToeBase
					{
						OFFSET -0.192200 -14.009700 16.364100
						CHANNELS 3 Xrotation Yrotation Zrotation
						JOINT RightToe_End
						{
							OFFSET 1.784700 -0.561700 9.474800
							CHANNELS 3 Xrotation Yrotation Zrotation
							End Site
							{
								OFFSET 0 0 0
							}
						}
					}
				}
			}
		}
	}
	JOINT Spine_virtual
	{
		OFFSET 0.000000 0.000000 0.000000
		CHANNELS 3 Xrotation Yrotation Zrotation
		JOINT Spine
		{
			OFFSET 0.072000 7.257294 -0.789700
			CHANNELS 3 Xrotation Yrotation Zrotation
			JOINT Spine1
			{
				OFFSET 0.000000 12.508769 -0.658067
				CHANNELS 3 Xrotation Yrotation Zrotation
				JOINT Spine1_split
				{
					OFFSET 0.000000 12.508769 -0.658067
					CHANNELS 3 Xrotation Yrotation Zrotation
					JOINT Spine2
					{
						OFFSET 0.000000 12.508769 -0.658067
						CHANNELS 3 Xrotation Yrotation Zrotation
						JOINT Neck_virtual
						{
							OFFSET 0.000000 0.000000 0.000000
							CHANNELS 3 Xrotation Yrotation Zrotation
							JOINT Neck
							{
								OFFSET 0.000000 14.033295 7.520400
								CHANNELS 3 Xrotation Yrotation Zrotation
								JOINT Head
								{
									OFFSET 0.000000 8.198502 5.703100
									CHANNELS 3 Xrotation Yrotation Zrotation
									JOINT HeadTop_End
									{
										OFFSET 0.000000 17.760803 13.332701
										CHANNELS 3 Xrotation Yrotation Zrotation
										End Site
										{
											OFFSET 0 0 0
										}
									}
								}
							}
						}
						JOINT LeftShoulder_virtual
						{
							OFFSET 0.000000 0.000000 0.000000
							CHANNELS 3 Xrotation Yrotation Zrotation
							JOINT LeftShoulder
							{
								OFFSET 6.292450 5.785301 -0.669000
								CHANNELS 3 Xrotation Yrotation Zrotation
								JOINT LeftShoulder_split
								{
									OFFSET 6.292450 5.785301 -0.669000
									CHANNELS 3 Xrotation Yrotation Zrotation
									JOINT LeftArm
									{
										OFFSET 13.907140 -6.093903 1.965100
										CHANNELS 3 Xrotation Yrotation Zrotation
										JOINT LeftForeArm
										{
											OFFSET 34.140198 0.000000 0.000000
											CHANNELS 3 Xrotation Yrotation Zrotation
											JOINT LeftHand
											{
												OFFSET 40.960209 0.000000 0.000000
												CHANNELS 3 Xrotation Yrotation Zrotation
												End Site
												{
													OFFSET 0 0 0
												}
											}
										}
									}
								}
							}
						}
						JOINT RightShoulder_virtual
						{
							OFFSET 0.000000 0.000000 0.000000
							CHANNELS 3 Xrotation Yrotation Zrotation
							JOINT RightShoulder
							{
								OFFSET -6.292450 5.785301 -0.669000
								CHANNELS 3 Xrotation Yrotation Zrotation
								JOINT RightShoulder_split
								{
									OFFSET -6.292450 5.785301 -0.669000
									CHANNELS 3 Xrotation Yrotation Zrotation
									JOINT RightArm
									{
										OFFSET -13.907140 -6.093903 1.965100
										CHANNELS 3 Xrotation Yrotation Zrotation
										JOINT RightForeArm
										{
											OFFSET -34.140198 0.000000 0.000000
											CHANNELS 3 Xrotation Yrotation Zrotation
											JOINT RightHand
											{
												OFFSET -40.960209 0.000000 0.000000
												CHANNELS 3 Xrotation Yrotation Zrotation
												End Site
												{
													OFFSET 0 0 0
												}
											}
										}
									}
								}
							}
						}
					}
				}
			}
		}
	}
}
MOTION
Frames: 10
Frame Time: 0.03333333
0.326237 88.396942 -8.419849 0.000000 0.000000 0.000000 -14.362722 4.445886 1.626801 -32.267043 -2.981051 13.173948 66.851194 -0.050769 0.809554 -21.188922 -2.489491 -12.773693 -2.825775 -0.248565 -0.345056 0.000000 0.000000 0.000000 -13.386324 2.254240 1.382977 -27.526654 -1.703259 -18.801376 68.581417 3.049273 -0.691849 -27.144266 -4.515833 13.809101 -0.696607 0.659437 0.313214 0.000000 0.000000 0.000000 -12.919121 3.373860 1.459400 25.169302 -3.247245 -0.078446 16.645113 -0.238602 0.478823 -0.084919 1.112092 0.286055 0.000000 0.000000 0.000000 17.750323 -0.266722 0.665197 8.458768 -4.091056 1.217278 -12.357182 -2.259291 -3.991516 0.000000 0.000000 0.000000 18.324100 -0.436916 0.325571 0.701080 -19.308441 -4.198032 -1.437626 -1.581913 -4.524331 -29.176656 -0.046172 -59.970017 -135.364077 -77.032472 -133.331044 0.000000 0.000000 0.000000 18.059439 -0.037694 0.796289 7.383218 3.014761 21.497336 2.452814 3.420543 3.963967 -31.005927 9.972752 42.490354 -103.677607 63.127081 94.597369 0.000000 0.000000 0.000000 
0.165042 88.939781 -8.005672 0.000000 0.000000 0.000000 -15.197220 4.042050 1.353281 -30.592967 -3.145022 13.389825 66.020766 0.066481 0.900585 -21.279922 -2.326499 -12.608479 -2.943719 -0.235278 -0.318084 0.000000 0.000000 0.000000 -14.289068 2.325336 1.162665 -26.038706 -1.625059 -18.251813 68.073770 2.966260 -0.719850 -27.244030 -4.624763 13.764958 -0.733129 0.650733 0.360129 0.000000 0.000000 0.000000 -14.193601 2.968387 1.317261 24.801715 -2.991094 -0.199946 16.116463 -0.175334 0.573895 -0.335473 0.720635 0.299689 0.000000 0.000000 0.000000 16.997305 -0.204088 0.670124 8.165395 -3.930613 0.600537 -11.797049 -1.859420 -3.558392 0.000000 0.000000 0.000000 18.076707 -0.512751 0.426609 0.545084 -19.546543 -5.334797 -0.749871 -1.955969 -3.985035 -26.917818 -1.629601 -60.272526 -130.950777 -79.893877 -128.874181 0.000000 0.000000 0.000000 17.529686 0.029548 0.938901 7.363339 3.330259 21.802235 2.081260 2.678253 4.097137 -28.202281 8.287378 40.886359 -102.645073 63.003666 93.150338 0.000000 0.000000 0.000000 
-0.058930 89.701393 -7.660358 0.000000 0.000000 0.000000 -16.117711 3.619357 1.074122 -28.763801 -3.426862 13.673672 64.816487 0.127981 1.021981 -21.180108 -2.233366 -12.542346 -3.004518 -0.228536 -0.288964 0.000000 0.000000 0.000000 -15.311240 2.371098 0.960043 -24.263373 -1.805718 -17.671356 67.170847 2.867320 -0.721874 -27.287429 -4.760682 13.702353 -0.808443 0.648125 0.410880 0.000000 0.000000 0.000000 -15.539780 2.804564 1.086714 24.164786 -2.680149 -0.233597 15.744505 -0.152472 0.712773 -0.328455 0.759983 0.367013 0.000000 0.000000 0.000000 16.418421 -0.200567 0.698079 7.751422 -3.658470 -0.121199 -11.450968 -1.353778 -3.043403 0.000000 0.000000 0.000000 17.904033 -0.601580 0.622505 0.415860 -20.214298 -6.434859 -0.713760 -2.216625 -3.700983 -24.186607 -4.058208 -59.648930 -122.004773 -82.206982 -119.373511 0.000000 0.000000 0.000000 17.057281 -0.011982 1.128599 7.169198 3.491385 22.192524 1.283965 2.600590 4.014524 -24.505472 7.850771 39.119505 -104.017415 64.150298 94.160462 0.000000 0.000000 0.000000 
-0.313935 90.574669 -7.350079 0.000000 0.000000 0.000000 -16.996439 3.226130 0.836189 -26.942637 -3.773292 13.984045 63.367865 0.144983 1.134417 -20.908917 -2.204384 -12.548935 -3.002907 -0.231852 -0.248971 0.000000 0.000000 0.000000 -16.353252 2.328703 0.810645 -22.468426 -2.215595 -17.140300 65.972223 2.770820 -0.694637 -27.215264 -4.906406 13.643268 -0.925966 0.651881 0.443081 0.000000 0.000000 0.000000 -16.757178 2.932418 0.841440 23.458285 -2.379486 -0.190873 15.460519 -0.178044 0.844472 0.098002 1.180353 0.611166 0.000000 0.000000 0.000000 15.990431 -0.244749 0.734185 7.017844 -3.278957 -0.830451 -11.464586 -0.862337 -2.433841 0.000000 0.000000 0.000000 17.645112 -0.692792 0.869029 0.370210 -20.992581 -7.231730 -1.061788 -2.385576 -3.814283 -21.907895 -6.327667 -58.304872 -114.423489 -83.580724 -110.770772 0.000000 0.000000 0.000000 16.598268 -0.148419 1.313933 6.888353 3.362310 22.604747 0.213728 2.806481 3.934092 -20.376189 8.116571 37.984868 -106.968542 66.342474 96.700643 0.000000 0.000000 0.000000 
-0.536485 91.456360 -7.080181 0.000000 0.000000 0.000000 -17.742050 2.910947 0.675911 -25.324183 -4.128670 14.257359 61.880141 0.161406 1.204471 -20.526827 -2.184142 -12.571541 -2.943922 -0.236973 -0.210937 0.000000 0.000000 0.000000 -17.269141 2.227354 0.709874 -20.828197 -2.768973 -16.694960 64.614477 2.689079 -0.637502 -27.074272 -5.059579 13.583227 -1.039961 0.660615 0.444689 0.000000 0.000000 0.000000 -17.773366 3.237871 0.658875 22.807491 -2.140510 -0.091573 15.154235 -0.257042 0.924685 0.699342 1.577039 0.786162 0.000000 0.000000 0.000000 15.594184 -0.330259 0.777572 5.892809 -2.781231 -1.387252 -11.921507 -0.534050 -1.749241 0.000000 0.000000 0.000000 17.235883 -0.777484 1.079907 0.403393 -21.600794 -7.774792 -1.799554 -2.361115 -4.477636 -20.094097 -7.746839 -56.932629 -115.121254 -84.546301 -110.197350 0.000000 0.000000 0.000000 16.096772 -0.342147 1.425413 6.594927 2.954803 23.032130 -0.650268 3.224354 3.763279 -16.381655 8.409236 37.803263 -110.851621 69.226604 100.026167 0.000000 0.000000 0.000000 
-0.685671 92.254738 -6.794468 0.000000 0.000000 0.000000 -18.311503 2.690666 0.590879 -24.024296 -4.441277 14.446950 60.561184 0.200963 1.226506 -20.104493 -2.111671 -12.597585 -2.864229 -0.238786 -0.182040 0.000000 0.000000 0.000000 -17.996976 2.164217 0.660219 -19.422340 -3.370794 -16.344438 63.246582 2.618229 -0.554452 -26.945513 -5.197487 13.475309 -1.106256 0.673891 0.412200 0.000000 0.000000 0.000000 -18.509222 3.599892 0.589893 22.294388 -1.987063 0.008676 14.735701 -0.367066 0.929136 1.080313 2.104708 0.757606 0.000000 0.000000 0.000000 15.152732 -0.412267 0.778175 4.492604 -2.188451 -1.718218 -12.705449 -0.287312 -1.061078 0.000000 0.000000 0.000000 16.631137 -0.848851 1.187939 0.451964 -21.849217 -8.233720 -2.584539 -2.306611 -5.234614 -18.130556 -8.114773 -55.969859 -123.372423 -85.801335 -117.227425 0.000000 0.000000 0.000000 15.501058 -0.535795 1.451968 6.373514 2.297871 23.404628 -1.140721 3.415594 3.331537 -13.325283 8.427692 38.742216 -114.906253 72.535161 103.405540 0.000000 0.000000 0.000000 
-0.793804 92.943825 -6.481331 0.000000 0.000000 0.000000 -18.676106 2.550158 0.558284 -23.080953 -4.700777 14.535824 59.515762 0.276766 1.213175 -19.698004 -1.942386 -12.643829 -2.785701 -0.231945 -0.174408 0.000000 0.000000 0.000000 -18.515313 2.194771 0.646733 -18.276024 -3.934121 -16.085329 61.982368 2.549278 -0.442267 -26.879340 -5.312893 13.303015 -1.127585 0.687373 0.360255 0.000000 0.000000 0.000000 -18.983251 3.959298 0.669601 21.955629 -1.909066 0.072987 14.156645 -0.455521 0.858938 1.212816 2.255674 0.761401 0.000000 0.000000 0.000000 14.578602 -0.456720 0.744850 3.032801 -1.540415 -1.831748 -13.664227 -0.059407 -0.472422 0.000000 0.000000 0.000000 15.889139 -0.895870 1.196021 0.486769 -21.568125 -8.691484 -3.159329 -2.187406 -5.713942 -15.783124 -7.842828 -55.498787 -136.837294 -88.096490 -129.772296 0.000000 0.000000 0.000000 14.802135 -0.659710 1.413600 6.230854 1.520187 23.635842 -1.472947 3.384708 2.945491 -11.363412 8.228599 40.034857 -118.571538 76.091914 106.386678 0.000000 0.000000 0.000000 
-0.856663 93.511169 -6.185307 0.000000 0.000000 0.000000 -18.865498 2.520219 0.569262 -22.485866 -4.883455 14.531858 58.768450 0.386816 1.182538 -19.348727 -1.688841 -12.717673 -2.732468 -0.216988 -0.189542 0.000000 0.000000 0.000000 -18.788293 2.329641 0.664832 -17.380752 -4.397933 -15.901059 60.849985 2.474828 -0.315920 -26.853758 -5.398928 13.087010 -1.145532 0.697870 0.304087 0.000000 0.000000 0.000000 -19.232686 4.239710 0.857136 21.744088 -1.866710 0.085896 13.445243 -0.486698 0.750168 1.094879 2.033799 0.530546 0.000000 0.000000 0.000000 13.858510 -0.441339 0.687341 1.621517 -0.858522 -1.769233 -14.630696 0.244124 -0.076179 0.000000 0.000000 0.000000 15.062328 -0.898608 1.123034 0.457434 -20.820104 -9.228307 -3.610268 -2.157445 -5.670399 -12.861712 -7.563599 -55.495246 74.638525 -88.346721 82.272347 0.000000 0.000000 0.000000 14.030187 -0.674627 1.336461 6.164054 0.811607 23.805900 -1.563374 3.171324 2.534510 -10.355132 8.098754 41.063398 -122.164340 79.796349 109.491184 0.000000 0.000000 0.000000 
-0.906681 93.980370 -5.872604 0.000000 0.000000 0.000000 -18.895910 2.570943 0.592125 -22.140342 -4.981532 14.473318 58.248748 0.500454 1.169684 -19.059342 -1.416881 -12.818488 -2.706797 -0.202093 -0.210916 0.000000 0.000000 0.000000 -18.855289 2.514312 0.705376 -16.716709 -4.708791 -15.775495 59.825620 2.409396 -0.199807 -26.823780 -5.441471 12.864413 -1.167922 0.702430 0.258362 0.000000 0.000000 0.000000 -19.289501 4.503041 1.098135 21.656955 -1.819671 0.043312 12.664657 -0.443568 0.645494 0.908126 1.891248 0.500311 0.000000 0.000000 0.000000 13.056231 -0.354558 0.617561 0.332453 -0.181698 -1.608535 -15.437336 0.728929 0.067726 0.000000 0.000000 0.000000 14.183684 -0.856583 1.017800 0.344882 -19.729555 -9.850810 -3.854006 -2.290719 -5.042147 -9.732749 -7.745864 -55.616936 62.710808 -84.426309 70.569091 0.000000 0.000000 0.000000 13.208750 -0.573553 1.274669 6.146587 0.262233 23.983991 -1.442365 2.900355 2.171414 -9.941048 8.337425 41.436517 -128.714409 83.372349 115.989029 0.000000 0.000000 0.000000 
-0.964105 94.374550 -5.623604 0.000000 0.000000 0.000000 -18.802572 2.723336 0.628511 -21.981212 -4.976224 14.397079 57.860083 0.605421 1.181937 -18.822029 -1.188415 -12.935264 -2.685228 -0.193018 -0.225718 0.000000 0.000000 0.000000 -18.710724 2.713043 0.755307 -16.243226 -4.842791 -15.687978 58.850488 2.351782 -0.109333 -26.774709 -5.449657 12.657291 -1.197945 0.699120 0.234642 0.000000 0.000000 0.000000 -19.194584 4.739069 1.322228 21.655511 -1.738113 -0.012122 11.895656 -0.336602 0.561625 0.946408 1.767429 0.486082 0.000000 0.000000 0.000000 12.222919 -0.226291 0.560511 -0.857069 0.429802 -1.394214 -16.020747 1.328275 0.015632 0.000000 0.000000 0.000000 13.346239 -0.779387 0.919569 0.205529 -18.456373 -10.478248 -4.015346 -2.438043 -4.307932 -7.045457 -8.473406 -55.683226 63.746067 -80.631517 71.597745 0.000000 0.000000 0.000000 12.407800 -0.387331 1.237946 6.152854 -0.052314 24.226493 -1.261920 2.577578 2.033994 -9.589716 9.088287 40.982679 -152.407393 86.177863 140.172748 0.000000 0.000000 0.000000 
